ply
format ascii 1.0
comment Created in Blender version 4.4.3
element vertex 60
property float x
property float y
property float z
property float nx
property float ny
property float nz
property uchar red
property uchar green
property uchar blue
property uchar alpha
property float s
property float t
element face 108
property list uchar uint vertex_indices
end_header
0.15999997 0 -0.15999997 0.32112873 0.89093435 -0.32111114 74 64 8 255 1 1
0.11536562 0.21051759 0.11536562 0.37833694 0.844821 0.3783366 74 64 8 255 1 0
0.15999997 0 0.15999997 0.32111114 0.89093435 0.32112873 74 64 8 255 1 0
0.15999997 0 0.15999997 0 1 0 74 64 8 255 1 0
-0.15999997 0 -0.15999997 0 1 0 74 64 8 255 0 1
-0.15999997 0 0.15999997 -0.32112873 0.89093435 0.32111114 74 64 8 255 0 0
-0.15999997 0 -0.15999997 -0.32111114 0.89093435 -0.32112873 74 64 8 255 0 1
0.15999997 0 -0.15999997 0 1 0 74 64 8 255 1 1
-0.15999997 0 0.15999997 0 1 0 74 64 8 255 0 0
0.11536562 0.21051759 -0.11536562 0.37833664 0.8448211 -0.37833697 74 64 8 255 1 1
-0.11536562 0.21051759 -0.11536562 0 1 0 74 64 8 255 0 1
0.11536562 0.21051759 -0.11536562 0 1 0 74 64 8 255 1 1
-0.11536562 0.21051759 -0.11536562 -0.37833697 0.844821 -0.3783366 74 64 8 255 0 1
-0.11536562 0.21051759 0.11536562 -0.37833664 0.8448211 0.37833697 74 64 8 255 0 0
0.11536562 0.21051759 0.11536562 0 1 0 74 64 8 255 1 0
0.11536562 0.21051759 -0.11536562 0.40957817 0.81472915 -0.41044134 74 64 8 255 1 1
0.11536562 0.21051759 0.11536562 0.41027218 0.81486386 0.4094797 74 64 8 255 1 0
-0.11536562 0.21051759 0.11536562 0 1 0 74 64 8 255 0 0
0.1572234 0.92334646 0 0.58529913 -0.8105715 0.019971896 74 64 8 255 1 0.5
0.11536562 0.92334646 0.11536562 0.3994465 -0.8329376 0.38295883 74 64 8 255 1 0
-0.11536562 0.21051759 0.11536562 -0.4094023 0.81496894 0.41014066 74 64 8 255 0 0
-0.11536562 0.21051759 -0.11536562 -0.4112489 0.81409186 -0.41003507 74 64 8 255 0 1
-0.15150982 0.92334646 0 -0.60333145 -0.7972843 -0.018136265 74 64 8 255 0 0.5
-0.11536562 0.92334646 -0.11536562 -0.4465755 -0.81936127 -0.35946837 74 64 8 255 0 1
0 0.92334646 -0.17252494 0.023463031 -0.84345937 -0.53668034 74 64 8 255 0.5 1
0.11536562 0.92334646 -0.11536562 0.40990505 -0.8198073 -0.39986727 74 64 8 255 1 1
0 0.92334646 0.15400943 -0.018976377 -0.8031562 0.59546614 74 64 8 255 0.5 0
-0.11536562 0.92334646 0.11536562 -0.3778474 -0.8376817 0.3943611 74 64 8 255 0 0
0.93918055 0.92334646 0.011563487 0.8377261 -0.5460903 0.0005923241 10 50 0 255 1 0.5
0.6881914 0.92334646 -0.68019617 0.6269952 -0.5380314 -0.56338185 10 50 0 255 1 1
-0.91205716 0.92334646 0.011563487 -0.8309687 -0.55631894 0.0005211283 10 50 0 255 0 0.5
-0.0035683014 0.92334646 0.9350406 -0.00017046735 -0.5504824 0.8348468 10 50 0 255 0.5 0
-0.695328 0.92334646 0.7033231 -0.6085957 -0.521454 0.5980778 10 50 0 255 0 0
-0.695328 0.92334646 -0.68019617 -0.64075357 -0.5339369 -0.55167586 10 50 0 255 0 1
-0.0035683014 0.92334646 -1.0229373 -0.00023469618 -0.5204343 -0.8539016 10 50 0 255 0.5 1
0.6881914 0.92334646 0.7033231 0.5941441 -0.5253092 0.6091329 10 50 0 255 1 0
0.48737204 2.0479794 0.4971989 0.68331933 0.2058992 0.70048577 10 50 0 255 1 0
-0.49200672 2.0479794 -0.48217982 -0.74515706 0.20247406 -0.63540953 10 50 0 255 0 1
0.48737204 2.0479794 -0.48217982 0.7308091 0.20131303 -0.65222025 10 50 0 255 1 1
0.66504467 2.0479794 0.0075095864 0.9806172 0.19593321 -0.00019785594 10 50 0 255 1 0.5
-0.49200672 2.0479794 0.4971989 -0.69875956 0.20720087 0.6846918 10 50 0 255 0 0
-0.64542705 2.0479794 0.0075095864 -0.9816833 0.19051994 -0.00016515263 10 50 0 255 0 0.5
-0.0023173364 2.0479794 -0.72480255 9.01189e-05 0.21310067 -0.9770302 10 50 0 255 0.5 1
-0.0023173364 2.0479794 0.6612293 5.5469103e-05 0.19558205 0.9806874 10 50 0 255 0.5 0
0.23249717 4.325598 -0.23086233 0.72181016 0.24828294 -0.646023 37 91 5 255 1 1
0.3171182 4.325598 0.002364474 0.9700978 0.24271458 0.00017733884 37 91 5 255 1 0.5
-0.23395644 4.325598 0.23559125 -0.6905969 0.25314674 0.67748994 37 91 5 255 0 0
-0.30702668 4.325598 0.002364474 -0.9714489 0.23724891 0.0001696773 37 91 5 255 0 0.5
-0.000729644 4.325598 -0.34641752 -5.353542e-05 0.2600206 -0.96560305 37 91 5 255 0.5 1
0.23249717 4.325598 0.23559125 0.6757104 0.2521134 0.6927152 37 91 5 255 1 0
-0.000729644 4.325598 0.31371483 -5.289108e-05 0.24277753 0.970082 37 91 5 255 0.5 0
-0.23395644 4.325598 -0.23086233 -0.735668 0.24919909 -0.6298352 37 91 5 255 0 1
0.00071420654 5.195061 -0.0023144854 -0.20030527 0.972782 0.116502516 37 91 5 255 1 0.5
0.00071420654 5.195061 -0.0023144907 -0.68276834 -0.24409685 -0.6886539 37 91 5 255 1 0
0.00071420654 5.195061 -0.0023144907 -0.8299909 -0.5565432 -0.037078474 37 91 5 255 0 1
0.00071420654 5.195061 -0.0023144907 0.63438916 0.772314 -0.03288552 37 91 5 255 1 1
0.00071420654 5.195061 -0.0023144907 0.5294205 0.03898134 0.8474635 37 91 5 255 0 0
0.00071420654 5.195061 -0.0023144854 0 0 0 37 91 5 255 0 0.5
0.0007142097 5.195061 -0.0023144907 0.0001100383 0.82663697 -0.5627356 37 91 5 255 0.5 1
0.0007142097 5.195061 -0.0023144907 0 0 0 37 91 5 255 0.5 0
3 0 1 2
3 3 0 2
3 4 5 6
3 7 6 0
3 8 2 5
3 9 10 11
3 5 12 6
3 6 9 0
3 2 13 5
3 14 15 16
3 13 14 17
3 1 11 14
3 12 17 10
3 15 18 19
3 10 20 21
3 11 21 15
3 17 16 20
3 20 22 23
3 21 24 25
3 16 26 27
3 25 28 18
3 24 29 25
3 27 30 22
3 27 31 32
3 24 33 34
3 19 31 26
3 19 28 35
3 23 30 33
3 28 36 35
3 30 37 33
3 28 38 39
3 30 40 41
3 29 42 38
3 31 40 32
3 33 42 34
3 31 36 43
3 39 44 45
3 41 46 47
3 38 48 44
3 43 46 40
3 37 48 42
3 43 49 50
3 39 49 36
3 41 51 37
3 49 52 53
3 47 54 51
3 45 55 52
3 47 56 57
3 44 58 55
3 50 56 46
3 51 58 48
3 50 53 59
3 0 9 1
3 3 7 0
3 4 8 5
3 7 4 6
3 8 3 2
3 9 12 10
3 5 13 12
3 6 12 9
3 2 1 13
3 14 11 15
3 13 1 14
3 1 9 11
3 12 13 17
3 19 16 15
3 15 25 18
3 10 17 20
3 11 10 21
3 17 14 16
3 23 21 20
3 20 27 22
3 25 15 21
3 21 23 24
3 27 20 16
3 16 19 26
3 25 29 28
3 24 34 29
3 27 32 30
3 27 26 31
3 24 23 33
3 19 35 31
3 19 18 28
3 23 22 30
3 28 39 36
3 30 41 37
3 28 29 38
3 30 32 40
3 29 34 42
3 31 43 40
3 33 37 42
3 31 35 36
3 39 38 44
3 41 40 46
3 38 42 48
3 43 50 46
3 37 51 48
3 43 36 49
3 39 45 49
3 41 47 51
3 49 45 52
3 47 57 54
3 45 44 55
3 47 46 56
3 44 48 58
3 50 59 56
3 51 54 58
3 50 49 53
