ply
format ascii 1.0
comment Created in Blender version 4.4.3
element vertex 60
property float x
property float y
property float z
property uchar red
property uchar green
property uchar blue
property uchar alpha
element face 108
property list uchar uint vertex_indices
end_header
-0.15999997 0 0.15999997 74 64 8 255
0.15999997 0 0.15999997 74 64 8 255
-0.15999997 0 -0.15999997 74 64 8 255
0.15999997 0 -0.15999997 74 64 8 255
-0.15999997 0 0.15999997 74 64 8 255
0.15999997 0 0.15999997 74 64 8 255
-0.15999997 0 -0.15999997 74 64 8 255
0.15999997 0 -0.15999997 74 64 8 255
-0.11536562 0.21051759 0.11536562 74 64 8 255
0.11536562 0.21051759 0.11536562 74 64 8 255
-0.11536562 0.21051759 -0.11536562 74 64 8 255
0.11536562 0.21051759 -0.11536562 74 64 8 255
-0.11536562 0.21051759 0.11536562 74 64 8 255
0.11536562 0.21051759 0.11536562 74 64 8 255
-0.11536562 0.21051759 -0.11536562 74 64 8 255
0.11536562 0.21051759 -0.11536562 74 64 8 255
-0.11536562 0.21051759 0.11536562 74 64 8 255
0.11536562 0.21051759 0.11536562 74 64 8 255
-0.11536562 0.21051759 -0.11536562 74 64 8 255
0.11536562 0.21051759 -0.11536562 74 64 8 255
-0.11536562 0.92334646 0.11536562 74 64 8 255
0.11536562 0.92334646 0.11536562 74 64 8 255
-0.11536562 0.92334646 -0.11536562 74 64 8 255
0.11536562 0.92334646 -0.11536562 74 64 8 255
-0.15150982 0.92334646 0 74 64 8 255
0 0.92334646 0.15400943 74 64 8 255
0.1572234 0.92334646 0 74 64 8 255
0 0.92334646 -0.17252494 74 64 8 255
-0.695328 0.92334646 0.7033231 10 50 0 255
0.6881914 0.92334646 0.7033231 10 50 0 255
-0.695328 0.92334646 -0.68019617 10 50 0 255
0.6881914 0.92334646 -0.68019617 10 50 0 255
-0.91205716 0.92334646 0.011563487 10 50 0 255
-0.0035683014 0.92334646 0.9350406 10 50 0 255
0.93918055 0.92334646 0.011563487 10 50 0 255
-0.0035683014 0.92334646 -1.0229373 10 50 0 255
-0.49200672 2.0479794 0.4971989 10 50 0 255
0.48737204 2.0479794 0.4971989 10 50 0 255
-0.49200672 2.0479794 -0.48217982 10 50 0 255
0.48737204 2.0479794 -0.48217982 10 50 0 255
-0.64542705 2.0479794 0.0075095864 10 50 0 255
-0.0023173364 2.0479794 0.6612293 10 50 0 255
0.66504467 2.0479794 0.0075095864 10 50 0 255
-0.0023173364 2.0479794 -0.72480255 10 50 0 255
-0.23395644 4.325598 0.23559125 37 91 5 255
0.23249717 4.325598 0.23559125 37 91 5 255
-0.23395644 4.325598 -0.23086233 37 91 5 255
0.23249717 4.325598 -0.23086233 37 91 5 255
-0.30702668 4.325598 0.002364474 37 91 5 255
-0.000729644 4.325598 0.31371483 37 91 5 255
0.3171182 4.325598 0.002364474 37 91 5 255
-0.000729644 4.325598 -0.34641752 37 91 5 255
0.00071420654 5.195061 -0.0023144907 37 91 5 255
0.00071420654 5.195061 -0.0023144907 37 91 5 255
0.00071420654 5.195061 -0.0023144907 37 91 5 255
0.00071420654 5.195061 -0.0023144907 37 91 5 255
0.00071420654 5.195061 -0.0023144854 37 91 5 255
0.0007142097 5.195061 -0.0023144907 37 91 5 255
0.00071420654 5.195061 -0.0023144854 37 91 5 255
0.0007142097 5.195061 -0.0023144907 37 91 5 255
3 7 9 5
3 1 7 5
3 2 4 6
3 3 6 7
3 0 5 4
3 11 14 15
3 4 10 6
3 6 11 7
3 5 8 4
3 13 19 17
3 8 13 12
3 9 15 13
3 10 12 14
3 19 26 21
3 14 16 18
3 15 18 19
3 12 17 16
3 16 24 22
3 18 27 23
3 17 25 20
3 23 34 26
3 27 31 23
3 20 32 24
3 20 33 28
3 27 30 35
3 21 33 25
3 21 34 29
3 22 32 30
3 34 37 29
3 32 38 30
3 34 39 42
3 32 36 40
3 31 43 39
3 33 36 28
3 30 43 35
3 33 37 41
3 42 47 50
3 40 44 48
3 39 51 47
3 41 44 36
3 38 51 43
3 41 45 49
3 42 45 37
3 40 46 38
3 45 58 53
3 48 54 46
3 50 55 58
3 48 52 56
3 47 59 55
3 49 52 44
3 46 59 51
3 49 53 57
3 7 11 9
3 1 3 7
3 2 0 4
3 3 2 6
3 0 1 5
3 11 10 14
3 4 8 10
3 6 10 11
3 5 9 8
3 13 15 19
3 8 9 13
3 9 11 15
3 10 8 12
3 21 17 19
3 19 23 26
3 14 12 16
3 15 14 18
3 12 13 17
3 22 18 16
3 16 20 24
3 23 19 18
3 18 22 27
3 20 16 17
3 17 21 25
3 23 31 34
3 27 35 31
3 20 28 32
3 20 25 33
3 27 22 30
3 21 29 33
3 21 26 34
3 22 24 32
3 34 42 37
3 32 40 38
3 34 31 39
3 32 28 36
3 31 35 43
3 33 41 36
3 30 38 43
3 33 29 37
3 42 39 47
3 40 36 44
3 39 43 51
3 41 49 44
3 38 46 51
3 41 37 45
3 42 50 45
3 40 48 46
3 45 50 58
3 48 56 54
3 50 47 55
3 48 44 52
3 47 51 59
3 49 57 52
3 46 54 59
3 49 45 53
